<?xml version="1.0" encoding="UTF-8"?>
<!-- Created with Inkscape (http://www.inkscape.org/) -->
<svg width="514.87" height="553.85" version="1.1" viewBox="0 0 514.87 553.85" xmlns="http://www.w3.org/2000/svg" xmlns:cc="http://creativecommons.org/ns#" xmlns:dc="http://purl.org/dc/elements/1.1/" xmlns:rdf="http://www.w3.org/1999/02/22-rdf-syntax-ns#">
 <metadata>
  <rdf:RDF>
   <cc:Work rdf:about="">
    <dc:format>image/svg+xml</dc:format>
    <dc:type rdf:resource="http://purl.org/dc/dcmitype/StillImage"/>
    <dc:title/>
    <dc:creator>
     <cc:Agent>
      <dc:title>Vulphere</dc:title>
     </cc:Agent>
    </dc:creator>
    <dc:rights>
     <cc:Agent>
      <dc:title>See the licence tag(s)</dc:title>
     </cc:Agent>
    </dc:rights>
   </cc:Work>
  </rdf:RDF>
 </metadata>
 <path d="m391.53 551.6c-0.48775-2.1595-1.3791-20.932-3.5017-73.75-1.6557-41.2-3.2043-108.47-2.9466-128 0.13423-10.175-0.51531-30.2-1.4434-44.5-2.1987-33.876-3.5619-63.678-3.6822-80.5-0.12005-16.788-1.3614-21.075-2.3418-8.0881-0.83607 11.075-3.1964 24.152-5.2436 29.052-2.3152 5.541-5.2095 8.0359-9.3224 8.0359-4.7388 0-7.0485-1.7533-11.087-8.4162-3.7569-6.1989-5.4761-7.3594-6.9161-4.6687-1.297 2.4235-3.1275 22.141-2.96 31.886 0.2252 13.105-3.7978 23.199-9.2459 23.199-3.3646 0-7.784-2.9305-8.4558-5.607-0.35486-1.4139-0.12116-6.9182 0.51932-12.232 0.64049-5.3136 1.6058-14.161 2.145-19.661 1.5303-15.607 3.7172-25.814 8.8924-41.5 6.9773-21.149 10.844-29.967 13.598-31.014 3.1344-1.1917 9.0435 0.57892 10.933 3.2758 1.8308 2.6138 1.9747 10.123 0.44299 23.11-0.59757 5.0669-0.90938 10.544-0.69292 12.17l0.39356 2.958 1.1741-2.7655c0.64575-1.521 2.0729-10.971 3.1715-21 1.0986-10.029 2.0779-18.909 2.1764-19.734 0.45095-3.7789-0.21703-14-0.91495-14-0.42838 0-5.0068 2.8125-10.174 6.25-5.1674 3.4375-11.229 7.4014-13.471 8.8086-6.7448 4.2341-8.0226 7.8056-14.597 40.801-7.513 37.705-9.3374 52.418-8.6616 69.85 0.48718 12.567 0.41476 13.241-1.4894 13.845-3.6296 1.152-8.6354-0.47602-10.797-3.5115-3.2186-4.5201-4.1558-12.085-3.4008-27.449 0.44218-8.9984 0.33761-13.692-0.29631-13.3-0.5388 0.333-2.6922 5.0156-4.7854 10.406-2.0932 5.3902-5.0607 12.725-6.5946 16.3-4.0104 9.3472-5.8048 15.097-8.4956 27.224-2.6015 11.724-4.456 16.17-7.4028 17.747-2.9409 1.5739-4.3342 1.2802-9.1924-1.9378l-4.4799-2.9674-7.9415 3.1089c-10.443 4.0883-18.617 4.2216-29.942 0.48851-12.087-3.9842-11.801-4.1164-10.973 5.0873 0.54586 6.0646 1.3122 8.6914 3.5239 12.079 3.2052 4.909 2.8974 7.4184-1.2158 9.9142-1.7066 1.0355-3.4957 1.308-5.4187 0.8254-4.1842-1.0502-9.8605-7.5112-11.386-12.96-0.71755-2.5628-1.6319-4.8619-2.0318-5.1091s-2.6443 1.8241-4.9874 4.6029c-3.6843 4.3694-4.6151 4.9638-6.8856 4.3973-3.2391-0.80817-5.8757-3.1156-7.79-6.8175-1.409-2.7248-1.3237-2.9707 2.4507-7.0654 2.1508-2.3333 5.1799-6.464 6.7314-9.1793 1.5515-2.7153 3.5228-5.7612 4.3806-6.7686 1.494-1.7546 1.656-1.7124 3.8446 1 3.453 4.2796 4.2243 1.8398 4.242-13.418 0.0162-14.029-0.15973-14.482-4.6527-11.965-5.1019 2.8582-22.279 19.12-23.328 22.086-2.7765 7.845-27.956 157.47-31.341 186.23-1.3011 11.058-2.668 20.594-3.0376 21.192-1.0735 1.737-9.0929 2.5583-11.645 1.1926-2.1129-1.1308-2.2088-1.6325-1.5946-8.3464 1.4508-15.86 20.67-134.66 27.93-172.64 2.4888-13.021 2.4314-15.95-0.23645-12.05-0.86896 1.2702-3.3115 4.1636-5.4278 6.4297-2.1164 2.2661-4.4216 5.2452-5.1229 6.6202-3.2241 6.3219-17.873 63.496-21.101 82.36-2.6061 15.227-4.5992 19.971-8.5872 20.443-3.9493 0.46709-8.8408-4.1372-8.8408-8.3217 0-4.4554 4.6676-24.93 12.002-52.647 6.2779-23.724 6.5091-24.834 5.171-24.834-1.3744 0-25.68 23.289-63.173 60.53-34.119 33.89-42.817 41.47-47.59 41.47-2.6066 0-8.41-5.114-8.41-7.411 0-1.7837 0.65463-2.3891 10-9.2484 3.575-2.624 23.15-21.222 43.5-41.329 20.35-20.107 45.477-44.648 55.838-54.535l18.838-17.977 1.3482-6c1.6802-7.4771 4.8681-29.416 7.0475-48.5 1.2578-11.014 1.527-19.549 1.1197-35.5-0.87448-34.25-4.2936-42.5-17.613-42.5-8.8785 0-25.678 14.078-36.993 31-8.1546 12.196-21.398 39.408-24.681 50.717-8.5218 29.348-11.562 55.652-7.8703 68.084 2.1464 7.2277 3.6875 7.8359 14.541 5.7385 9.6906-1.8727 11.62-1.4613 14.62 3.1166 1.5984 2.4395 1.5947 2.659-0.0659 3.8732-3.3921 2.4804-15.485 4.7702-21.74 4.1165-11.411-1.1927-17.912-7.09-21.542-19.542-1.3585-4.6597-1.4094-6.9115-0.37332-16.5 3.899-36.082 12.072-63.914 27.194-92.604 8.7192-16.543 14.185-24.36 23.825-34.072 14.743-14.854 27.4-19.12 41.3-13.92 10.674 3.9935 17.199 12.613 20.303 26.818 3.4861 15.955 2.6064 62.731-1.6166 85.96-3.0174 16.598-2.7772 17.042 5.1207 9.4632l4.95-4.75 3.9771-19c12.068-57.652 29.557-104.4 44.181-118.09 5.1403-4.8135 8.6273-5.5791 13.629-2.9924 2.5602 1.3239 3.0863 1.1953 8.138-1.9899 6.7538-4.2584 10.339-4.9465 17.463-3.3522 3.902 0.87324 5.9492 0.94029 6.6709 0.21851 0.57274-0.57274 2.1692-5.4831 3.5477-10.912 1.3785-5.4288 2.975-10.435 3.5477-11.125 0.57272-0.69009 3.1529-1.2547 5.7336-1.2547 4.3781 0 4.8041-0.23439 6.3614-3.5 1.9017-3.9878 4.7569-4.5569 9.794-1.9521 3.9919 2.0643 4.8686 4.817 3.6573 11.484-0.92026 5.0647-0.78495 5.9658 1.6035 10.679 1.4347 2.8313 3.034 5.4107 3.5539 5.732s1.4648-2.0093 2.0996-5.1792c0.63486-3.1699 1.8272-8.4355 2.6498-11.701 1.983-7.8737 1.2511-10.923-4.8561-20.23-9.0226-13.75-10.719-20.899-6.2275-26.237 6.6527-7.9062 23.682-5.9582 32.09 3.671 2.7198 3.1147 3.386 3.4374 4.7534 2.3026 1.1485-0.95319 3.8806-1.1863 9.8368-0.83928 10.875 0.63357 23.593 5.4502 33.443 12.666 4.0205 2.9452 7.9923 5.1196 9 4.9272 2.1338-0.4073 2.63-2.4924 4.8363-20.323 3.6891-29.815 4.5058-40.621 5.4764-72.464 0.56101-18.405 1.4299-33.874 1.9308-34.375 1.3183-1.3183 7.4471 0.069677 10.334 2.3401 1.438 1.1311 2.948 3.8215 3.6014 6.4165 1.5389 6.1115 1.3604 22.907-0.37824 35.583-2.9629 21.603-5.1607 88.003-2.9128 88.001 0.59606-5.6e-4 5.9961-2.9954 12-6.6552 34.408-20.974 90.268-49.98 98.337-51.062 3.2729-0.43899 4.0461-0.08566 6.8832 3.1456 5.2031 5.926 4.0127 8.7065-5.3039 12.389-6.4381 2.5445-32.985 14.995-41.823 19.615-3.7525 1.9616-7.6349 3.5666-8.6275 3.5666-0.9927 0-2.3507 0.65757-3.0177 1.4613s-2.1636 1.7631-3.3258 2.1319c-1.8397 0.58391-10.866 5.6553-34.206 19.218-3.3 1.9176-7.8263 4.5349-10.058 5.8162s-5.8321 3.8645-8 5.7403l-3.9416 3.4106 0.17723 53.861c0.16714 50.796 1.3506 90.904 3.4187 115.86 0.50134 6.05 1.3248 40.025 1.83 75.5 0.85184 59.825 1.6284 85.296 4.1004 134.5 0.52502 10.45 0.95889 19.788 0.96415 20.75 8e-3 1.4727-0.93827 1.75-5.9714 1.75-5.3852 0-6.0316-0.22411-6.4891-2.25zm-139.49-229.14c4.6512-1.3143 9.6621-2.6648 11.135-3.0011 2.1455-0.48976 3.1142-1.7556 4.8674-6.3603 1.2038-3.1619 2.4195-7.6614 2.7015-9.9989 0.50862-4.2164 0.48755-4.25-2.667-4.25-7.2163 0-13.63-6.3904-14.979-14.924-0.44491-2.8145-0.98717-5.2552-1.205-5.424s-3.2848 0.17804-6.8153 0.77057l-6.4192 1.0773-9.4206 14c-5.1813 7.7-10.372 15.917-11.535 18.26-2.5865 5.2114-1.9342 6.1376 6.8711 9.7575 7.8357 3.2212 16.294 3.2498 27.466 0.0927zm-63.188-35.777c5.6953-5.1333 11.32-9.8733 12.5-10.533 1.1797-0.66006 5.9699-4.5035 10.645-8.541 7.8314-6.7635 8.5444-7.6916 9.064-11.8 0.31022-2.4525 2.6257-9.634 5.1454-15.959 2.5198-6.325 5.9984-16.45 7.7303-22.5 3.3722-11.78 5.9168-29.87 4.6501-33.057-0.68047-1.7124-1.4463-1.2036-6.461 4.293-8.8836 9.7373-17.047 24.785-17.105 31.529-0.0174 2.0325-0.88449 3.2895-3.2737 4.7463-4.5175 2.7544-7.1089 2.4908-11.249-1.144-1.9626-1.7232-3.7653-2.9361-4.0061-2.6954-2.8728 2.8728-21.495 68.18-21.495 75.382 0 2.3175 2.2519 0.73755 13.855-9.7206zm96.672-20.885c2.4953-4.8254 8.563-21.178 8.2294-22.179-0.53115-1.5934-16.393 12.94-17.782 16.293-1.2807 3.0919-1.2036 3.3441 1.8606 6.0819 4.0758 3.6417 5.7293 3.5996 7.692-0.19585zm-9.0418-28.108c25.314-22.679 29.958-26.035 33.915-24.517 2.0838 0.79963 4.3258-1.4042 5.0645-4.9783 0.94731-4.5833-0.68976-4.82-5.8886-0.85165-2.5265 1.9286-4.834 3.5064-5.1278 3.5064-0.29373 0-3.0402 1.9125-6.1033 4.25s-8.4153 6.275-11.894 8.75c-18.146 12.911-28.452 21.603-28.452 23.996 0 1.0125 0.2806 2.5721 0.62356 3.4658 0.73765 1.9223-0.78198 3.0812 17.862-13.621zm-22.346-4.599c33.736-26.324 42.861-33.631 42.861-34.321 0-0.43197-0.90494-1.0726-2.011-1.4237-2.5112-0.79702-4.989-5.4482-4.989-9.3651 0-4.7801-0.89382-6.2586-3.0771-5.0902-2.4073 1.2884-7.5007-0.78353-10.847-4.4124-4.2851-4.6467-4.772-3.6863-5.2813 10.416-0.40217 11.137-0.76997 13.441-2.5152 15.75-2.0882 2.7634-3.6782 3.1119-8.532 1.8699-2.3783-0.60856-3.021-0.26311-4.7256 2.5398-1.8246 3.0003-9.2022 22.682-10.621 28.333-0.3399 1.3543-0.23171 2.4584 0.24041 2.4536 0.47213-5e-3 4.746-3.0423 9.4976-6.75zm63.111-47.953c3.1625-2.4228 5.75-4.8228 5.75-5.3333 0-0.51047 1.5946-1.5944 3.5435-2.4087 3.763-1.5723 32.056-20.529 39.207-26.269 2.3375-1.8763 4.25-4.1569 4.25-5.0679 0-3.3358-12.077-13.333-21.764-18.016-15.522-7.504-21.237-6.8611-28.988 3.2609-6.244 8.1538-6.5788 9.5012-7.3409 29.539-0.65081 17.111-1.3897 22.001-4.4384 29.373-0.70199 1.6975-0.55453 1.7515 1.6298 0.59669 1.3209-0.6983 4.9891-3.252 8.1516-5.6748z"/>
</svg>
